<svg aria-hidden="true" style="position: absolute; width: 0; height: 0; overflow: hidden;" version="1.1" xmlns="http://www.w3.org/2000/svg" xmlns:xlink="http://www.w3.org/1999/xlink">
<defs>
<symbol id="icon-close-black" viewBox="0 0 32 32">
<path d="m26.667 7.303-1.97-1.97-7.808 7.808-7.808-7.808-1.97 1.97 7.808 7.808-7.808 7.808 1.97 1.97 7.808-7.808 7.808 7.808 1.97-1.97-7.808-7.808 7.808-7.808z"/></symbol>
</symbol>
<symbol id="icon-favorite" viewBox="0 0 32 32">
<path fill="#ff6b08" style="fill: var(--color1, #ff6b08)" d="M16 30.583l-2.24-2.24c-8.32-7.36-13.76-12.32-13.76-18.4 0-4.96 3.84-8.8 8.8-8.8 2.72 0 5.44 1.28 7.2 3.36 1.76-2.080 4.48-3.36 7.2-3.36 4.96 0 8.8 3.84 8.8 8.8 0 6.080-5.44 11.040-13.76 18.4l-2.24 2.24z"></path>
</symbol>
<symbol id="icon-film-library" viewBox="0 0 32 32">
<path stroke-linejoin="round" stroke-linecap="round" stroke-miterlimit="4" stroke-width="2.6667" d="M26.427 3.606h-20.853c-1.605 0-2.907 1.239-2.907 2.768v19.856c0 1.529 1.301 2.768 2.907 2.768h20.853c1.605 0 2.907-1.239 2.907-2.768v-19.856c0-1.529-1.301-2.768-2.907-2.768z"></path>
<path stroke-linejoin="round" stroke-linecap="round" stroke-miterlimit="4" stroke-width="2.6667" d="M9.333 3.606v25.391"></path>
<path stroke-linejoin="round" stroke-linecap="round" stroke-miterlimit="4" stroke-width="2.6667" d="M22.667 3.606v25.391"></path>
<path stroke-linejoin="round" stroke-linecap="round" stroke-miterlimit="4" stroke-width="2.6667" d="M2.667 16.301h26.667"></path>
<path stroke-linejoin="round" stroke-linecap="round" stroke-miterlimit="4" stroke-width="2.6667" d="M2.667 9.954h6.667"></path>
<path stroke-linejoin="round" stroke-linecap="round" stroke-miterlimit="4" stroke-width="2.6667" d="M2.667 22.649h6.667"></path>
<path stroke-linejoin="round" stroke-linecap="round" stroke-miterlimit="4" stroke-width="2.6667" d="M22.667 22.649h6.667"></path>
<path stroke-linejoin="round" stroke-linecap="round" stroke-miterlimit="4" stroke-width="2.6667" d="M22.667 9.954h6.667"></path>
</symbol>
<symbol id="icon-film-main" viewBox="0 0 32 32">
<path stroke-linejoin="round" stroke-linecap="round" stroke-miterlimit="4" stroke-width="2.6667" d="M26.427 2.667h-20.853c-1.605 0-2.907 1.301-2.907 2.907v20.853c0 1.605 1.301 2.907 2.907 2.907h20.853c1.605 0 2.907-1.301 2.907-2.907v-20.853c0-1.605-1.301-2.907-2.907-2.907z"></path>
<path stroke-linejoin="round" stroke-linecap="round" stroke-miterlimit="4" stroke-width="2.6667" d="M9.333 2.667v26.667"></path>
<path stroke-linejoin="round" stroke-linecap="round" stroke-miterlimit="4" stroke-width="2.6667" d="M22.667 2.667v26.667"></path>
<path stroke-linejoin="round" stroke-linecap="round" stroke-miterlimit="4" stroke-width="2.6667" d="M2.667 16h26.667"></path>
<path stroke-linejoin="round" stroke-linecap="round" stroke-miterlimit="4" stroke-width="2.6667" d="M2.667 9.333h6.667"></path>
<path stroke-linejoin="round" stroke-linecap="round" stroke-miterlimit="4" stroke-width="2.6667" d="M2.667 22.667h6.667"></path>
<path stroke-linejoin="round" stroke-linecap="round" stroke-miterlimit="4" stroke-width="2.6667" d="M22.667 22.667h6.667"></path>
<path stroke-linejoin="round" stroke-linecap="round" stroke-miterlimit="4" stroke-width="2.6667" d="M22.667 9.333h6.667"></path>
</symbol>
<symbol id="icon-search-main" viewBox="0 0 32 32">
<path stroke-linejoin="round" stroke-linecap="round" stroke-miterlimit="4" stroke-width="2.6667" d="M14.667 25.333c5.891 0 10.667-4.776 10.667-10.667s-4.776-10.667-10.667-10.667c-5.891 0-10.667 4.776-10.667 10.667s4.776 10.667 10.667 10.667z"></path>
<path stroke-linejoin="round" stroke-linecap="round" stroke-miterlimit="4" stroke-width="2.6667" d="M28 28.001l-5.8-5.8"></path>
</symbol>
<symbol id="icon-search" viewBox="0 0 32 32">
<path stroke-width="2.3111" stroke-miterlimit="4" stroke-linecap="round" stroke-linejoin="round" d="M14.667 25.333c5.891 0 10.667-4.776 10.667-10.667s-4.776-10.667-10.667-10.667c-5.891 0-10.667 4.776-10.667 10.667s4.776 10.667 10.667 10.667z"></path>
<path stroke-width="2.3111" stroke-miterlimit="4" stroke-linecap="round" stroke-linejoin="round" d="M28.001 28l-5.8-5.8"></path>
</symbol>
<symbol id="icon-search2" viewBox="0 0 32 32">
<path d="M12.5 0c-6.893 0-12.5 5.607-12.5 12.5s5.607 12.5 12.5 12.5c2.758 0 5.307-0.898 7.375-2.416 0 0 1.389 1.359 1.455 1.383 0 0.012-0.002 0.021-0.002 0.033 0 0.668 0.26 1.297 0.732 1.768l5.172 5.172c0.488 0.488 1.127 0.73 1.768 0.73s1.281-0.242 1.768-0.73l0.172-0.174c0.473-0.471 0.732-1.098 0.732-1.766s-0.26-1.297-0.732-1.768l-5.172-5.172c-0.496-0.496-1.148-0.736-1.799-0.727-0.025-0.068-1.385-1.459-1.385-1.459 1.518-2.068 2.416-4.617 2.416-7.375 0-6.893-5.607-12.5-12.5-12.5zM12.5 1c6.342 0 11.5 5.158 11.5 11.5s-5.158 11.5-11.5 11.5c-6.342 0-11.5-5.158-11.5-11.5s5.158-11.5 11.5-11.5zM12.5 3c-2.537 0-4.924 0.988-6.719 2.781-3.703 3.705-3.703 9.732 0 13.436 1.795 1.795 4.182 2.783 6.719 2.783s4.924-0.988 6.719-2.781c3.703-3.705 3.703-9.732 0-13.438-1.795-1.793-4.182-2.781-6.719-2.781zM12.5 4c2.27 0 4.404 0.885 6.010 2.49 3.314 3.313 3.314 8.707 0 12.020-1.605 1.605-3.74 2.49-6.010 2.49s-4.404-0.885-6.010-2.49c-3.314-3.313-3.314-8.705 0-12.020 1.605-1.605 3.74-2.49 6.010-2.49zM12.404 5.5c-1.818 0.021-3.553 0.748-4.855 2.049-0.195 0.197-0.195 0.512 0 0.709 0.098 0.096 0.227 0.146 0.355 0.146 0.127 0 0.256-0.051 0.354-0.146 1.273-1.275 3.033-1.906 4.832-1.729 0.275 0.023 0.52-0.174 0.547-0.449s-0.174-0.52-0.449-0.547c-0.262-0.025-0.523-0.037-0.783-0.033zM15.93 6.438c-0.191-0.027-0.393 0.061-0.5 0.238-0.143 0.236-0.066 0.543 0.172 0.686 0.41 0.25 0.795 0.551 1.141 0.896 0.098 0.098 0.225 0.146 0.354 0.146s0.256-0.049 0.355-0.146c0.193-0.195 0.193-0.512 0-0.707-0.404-0.402-0.854-0.754-1.334-1.045-0.059-0.035-0.123-0.059-0.188-0.068zM5.5 12c-0.275 0-0.5 0.223-0.5 0.5s0.225 0.5 0.5 0.5h1c0.275 0 0.5-0.223 0.5-0.5s-0.225-0.5-0.5-0.5zM18.5 12c-0.275 0-0.5 0.223-0.5 0.5s0.225 0.5 0.5 0.5h1c0.275 0 0.5-0.223 0.5-0.5s-0.225-0.5-0.5-0.5zM6.945 14.248c-0.064-0.002-0.133 0.010-0.195 0.035l-0.928 0.375c-0.256 0.104-0.379 0.395-0.275 0.65 0.078 0.195 0.266 0.314 0.463 0.314 0.063 0 0.127-0.012 0.188-0.037l0.928-0.375c0.256-0.104 0.379-0.395 0.275-0.65-0.078-0.191-0.26-0.311-0.455-0.313zM18.023 14.344c-0.195 0-0.381 0.115-0.461 0.305-0.107 0.256 0.010 0.549 0.266 0.656l0.92 0.391c0.063 0.027 0.129 0.039 0.195 0.039 0.195 0 0.379-0.113 0.461-0.305 0.107-0.254-0.012-0.547-0.266-0.654l-0.92-0.391c-0.064-0.027-0.131-0.041-0.195-0.041zM8.258 16.242c-0.129 0-0.256 0.049-0.354 0.146l-0.707 0.707c-0.195 0.195-0.195 0.512 0 0.707 0.098 0.098 0.225 0.146 0.354 0.146s0.256-0.049 0.354-0.146l0.707-0.707c0.195-0.195 0.195-0.512 0-0.707-0.098-0.098-0.227-0.146-0.354-0.146zM16.742 16.242c-0.127 0-0.256 0.049-0.354 0.146-0.195 0.195-0.195 0.512 0 0.707l0.707 0.707c0.098 0.098 0.225 0.146 0.354 0.146s0.256-0.049 0.354-0.146c0.195-0.195 0.195-0.512 0-0.707l-0.707-0.707c-0.098-0.098-0.227-0.146-0.354-0.146zM10.156 17.523c-0.195 0-0.381 0.113-0.461 0.305l-0.391 0.92c-0.107 0.254 0.012 0.549 0.266 0.656 0.064 0.027 0.129 0.039 0.195 0.039 0.193 0 0.379-0.115 0.461-0.305l0.391-0.92c0.107-0.254-0.012-0.549-0.266-0.656-0.064-0.027-0.131-0.039-0.195-0.039zM14.756 17.563c-0.064 0-0.133 0.012-0.195 0.037-0.258 0.104-0.381 0.395-0.277 0.65l0.375 0.928c0.078 0.195 0.266 0.313 0.465 0.313 0.063 0 0.125-0.012 0.188-0.037 0.256-0.104 0.379-0.395 0.275-0.65l-0.375-0.928c-0.078-0.191-0.26-0.309-0.455-0.313zM12.5 18c-0.275 0-0.5 0.223-0.5 0.5v1c0 0.277 0.225 0.5 0.5 0.5s0.5-0.223 0.5-0.5v-1c0-0.277-0.225-0.5-0.5-0.5zM21.955 20.662l0.938 0.939c-0.236 0.117-0.463 0.264-0.66 0.461l-0.172 0.17c-0.195 0.195-0.342 0.42-0.461 0.658l-0.938-0.936c0.463-0.398 0.895-0.83 1.293-1.293zM24 22.328c0.385 0 0.77 0.146 1.063 0.439l5.172 5.172c0.283 0.283 0.438 0.66 0.438 1.061s-0.156 0.777-0.439 1.061l-0.172 0.172c-0.586 0.584-1.535 0.584-2.121 0l-5.172-5.172c-0.283-0.283-0.439-0.66-0.439-1.061s0.156-0.777 0.439-1.061l0.172-0.172c0.293-0.293 0.678-0.439 1.061-0.439z"></path>
</symbol>
<symbol id="icon-key" viewBox="0 0 32 32">
<path d="M16 31c-0.226 0-0.435-0.075-0.602-0.202l0.002 0.002-4-3c-0.244-0.184-0.4-0.474-0.4-0.8v0-9.53c-2.426-1.638-4-4.377-4-7.483 0-4.971 4.029-9 9-9s9 4.029 9 9c0 3.107-1.574 5.846-3.968 7.463l-0.032 0.020v1.53c0 0.002 0 0.004 0 0.006 0 0.275-0.111 0.524-0.29 0.704l0-0-1.3 1.29 1.3 1.29c0.183 0.181 0.296 0.432 0.296 0.71s-0.113 0.529-0.296 0.71l-0 0-1.3 1.29 1.3 1.29c0.181 0.181 0.293 0.431 0.293 0.707 0 0.026-0.001 0.051-0.003 0.076l0-0.003c-0.022 0.3-0.173 0.56-0.397 0.728l-0.003 0.002-4 3c-0.165 0.125-0.374 0.2-0.6 0.2v0zM13 26.5l3 2.25 2.48-1.86-1.19-1.18c-0.183-0.181-0.296-0.432-0.296-0.71s0.113-0.529 0.296-0.71l0-0 1.3-1.29-1.3-1.29c-0.183-0.181-0.296-0.432-0.296-0.71s0.113-0.529 0.296-0.71l0-0 1.71-1.7v-1.67c0.002-0.366 0.201-0.685 0.495-0.857l0.005-0.003c2.107-1.233 3.5-3.485 3.5-6.062 0-3.866-3.134-7-7-7s-7 3.134-7 7c0 2.577 1.393 4.829 3.467 6.044l0.033 0.018c0.299 0.175 0.498 0.494 0.5 0.86v0zM20 19v0z"></path>
<path d="M17 8c0 0.552-0.448 1-1 1s-1-0.448-1-1c0-0.552 0.448-1 1-1s1 0.448 1 1z"></path>
<path d="M16 10c-1.105 0-2-0.895-2-2s0.895-2 2-2c1.105 0 2 0.895 2 2v0c0 1.105-0.895 2-2 2v0z"></path>
</symbol>
<symbol id="icon-moon" viewBox="0 0 32 32">
<path d="M13.899 18.089c2.153 2.148 5.124 3.475 8.405 3.475 1.826 0 3.555-0.411 5.101-1.146l-0.072 0.031c-1.931 4.117-6.042 6.917-10.806 6.917-6.572 0-11.899-5.328-11.899-11.899 0-4.76 2.795-8.867 6.833-10.77l0.073-0.031c-0.704 1.472-1.115 3.2-1.115 5.023 0 3.28 1.33 6.25 3.48 8.399l0 0z"></path>
</symbol>
<symbol id="icon-Sun" viewBox="0 0 32 32">
<path d="M24.5 16c0 4.694-3.806 8.5-8.5 8.5s-8.5-3.806-8.5-8.5c0-4.694 3.806-8.5 8.5-8.5s8.5 3.806 8.5 8.5z"></path>
<path stroke-linejoin="miter" stroke-linecap="round" stroke-miterlimit="10" stroke-width="1.5" d="M16 2.5v3"></path>
<path stroke-linejoin="miter" stroke-linecap="round" stroke-miterlimit="10" stroke-width="1.5" d="M16 26.5v3"></path>
<path stroke-linejoin="miter" stroke-linecap="round" stroke-miterlimit="10" stroke-width="1.5" d="M29.5 16h-3"></path>
<path stroke-linejoin="miter" stroke-linecap="round" stroke-miterlimit="10" stroke-width="1.5" d="M5.5 16h-3"></path>
<path stroke-linejoin="miter" stroke-linecap="round" stroke-miterlimit="10" stroke-width="1.5" d="M25.545 6.455l-2.12 2.12"></path>
<path stroke-linejoin="miter" stroke-linecap="round" stroke-miterlimit="10" stroke-width="1.5" d="M8.575 23.425l-2.12 2.12"></path>
<path stroke-linejoin="miter" stroke-linecap="round" stroke-miterlimit="10" stroke-width="1.5" d="M25.545 25.545l-2.12-2.12"></path>
<path stroke-linejoin="miter" stroke-linecap="round" stroke-miterlimit="10" stroke-width="1.5" d="M8.575 8.575l-2.12-2.12"></path>
</symbol>
<symbol id="icon-arrow-left" viewBox="0 0 32 32">
<path stroke-linejoin="round" stroke-linecap="round" stroke-miterlimit="4" stroke-width="2.6667" d="M25.333 16h-18.667"></path>
<path stroke-linejoin="round" stroke-linecap="round" stroke-miterlimit="4" stroke-width="2.6667" d="M16 25.334l-9.333-9.333 9.333-9.333"></path>
</symbol>
<symbol id="icon-arrow-right" viewBox="0 0 32 32">
<path stroke-linejoin="round" stroke-linecap="round" stroke-miterlimit="4" stroke-width="2.6667" d="M6.667 16h18.667"></path>
<path stroke-linejoin="round" stroke-linecap="round" stroke-miterlimit="4" stroke-width="2.6667" d="M16 25.334l9.333-9.333-9.333-9.333"></path>
</symbol>

 <symbol id="icon-modal-email-black" viewBox="0 0 32 32">
            <path d="M26.667 5.333h-21.333c-1.467 0-2.653 1.2-2.653 2.667l-0.013 16c0 1.467 1.2 2.667 2.667 2.667h21.333c1.467 0 2.667-1.2 2.667-2.667v-16c0-1.467-1.2-2.667-2.667-2.667zM26.133 11l-9.427 5.893c-0.427 0.267-0.987 0.267-1.413 0l-9.427-5.893c-0.333-0.213-0.533-0.573-0.533-0.96 0-0.893 0.973-1.427 1.733-0.96l8.933 5.587 8.933-5.587c0.76-0.467 1.733 0.067 1.733 0.96 0 0.387-0.2 0.747-0.533 0.96z"></path>
        </symbol>

         <symbol id="icon-modal-person-black" viewBox="0 0 32 32">
            <path d="M16 16c2.947 0 5.333-2.387 5.333-5.333s-2.387-5.333-5.333-5.333c-2.947 0-5.333 2.387-5.333 5.333s2.387 5.333 5.333 5.333zM16 18.667c-3.56 0-10.667 1.787-10.667 5.333v1.333c0 0.733 0.6 1.333 1.333 1.333h18.667c0.733 0 1.333-0.6 1.333-1.333v-1.333c0-3.547-7.107-5.333-10.667-5.333z"></path>
        </symbol>

        <symbol id="icon-modal-key" viewBox="0 0 32 32">
            <path d="M22 0c-5.523 0-10 4.477-10 10 0 0.626 0.058 1.238 0.168 1.832l-12.168 12.168v6c0 1.105 0.895 2 2 2h2v-2h4v-4h4v-4h4l2.595-2.595c1.063 0.385 2.209 0.595 3.405 0.595 5.523 0 10-4.477 10-10s-4.477-10-10-10zM24.996 10.004c-1.657 0-3-1.343-3-3s1.343-3 3-3 3 1.343 3 3-1.343 3-3 3z"></path>
        </symbol>

          <symbol id="icon-modal-eye" viewBox="0 0 32 32">
            <path d="M16 6c-6.979 0-13.028 4.064-16 10 2.972 5.936 9.021 10 16 10s13.027-4.064 16-10c-2.972-5.936-9.021-10-16-10zM23.889 11.303c1.88 1.199 3.473 2.805 4.67 4.697-1.197 1.891-2.79 3.498-4.67 4.697-2.362 1.507-5.090 2.303-7.889 2.303s-5.527-0.796-7.889-2.303c-1.88-1.199-3.473-2.805-4.67-4.697 1.197-1.891 2.79-3.498 4.67-4.697 0.122-0.078 0.246-0.154 0.371-0.228-0.311 0.854-0.482 1.776-0.482 2.737 0 4.418 3.582 8 8 8s8-3.582 8-8c0-0.962-0.17-1.883-0.482-2.737 0.124 0.074 0.248 0.15 0.371 0.228v0zM16 13c0 1.657-1.343 3-3 3s-3-1.343-3-3 1.343-3 3-3 3 1.343 3 3z"></path>
        </symbol>

        <symbol id="icon-modal-eye-blocked" viewBox="0 0 32 32">
            <path d="M29.561 0.439c-0.586-0.586-1.535-0.586-2.121 0l-6.318 6.318c-1.623-0.492-3.342-0.757-5.122-0.757-6.979 0-13.028 4.064-16 10 1.285 2.566 3.145 4.782 5.407 6.472l-4.968 4.968c-0.586 0.586-0.586 1.535 0 2.121 0.293 0.293 0.677 0.439 1.061 0.439s0.768-0.146 1.061-0.439l27-27c0.586-0.586 0.586-1.536 0-2.121zM13 10c1.32 0 2.44 0.853 2.841 2.037l-3.804 3.804c-1.184-0.401-2.037-1.521-2.037-2.841 0-1.657 1.343-3 3-3zM3.441 16c1.197-1.891 2.79-3.498 4.67-4.697 0.122-0.078 0.246-0.154 0.371-0.228-0.311 0.854-0.482 1.776-0.482 2.737 0 1.715 0.54 3.304 1.459 4.607l-1.904 1.904c-1.639-1.151-3.038-2.621-4.114-4.323z"></path>
            <path d="M24 13.813c0-0.849-0.133-1.667-0.378-2.434l-10.056 10.056c0.768 0.245 1.586 0.378 2.435 0.378 4.418 0 8-3.582 8-8z"></path>
            <path d="M25.938 9.062l-2.168 2.168c0.040 0.025 0.079 0.049 0.118 0.074 1.88 1.199 3.473 2.805 4.67 4.697-1.197 1.891-2.79 3.498-4.67 4.697-2.362 1.507-5.090 2.303-7.889 2.303-1.208 0-2.403-0.149-3.561-0.439l-2.403 2.403c1.866 0.671 3.873 1.036 5.964 1.036 6.978 0 13.027-4.064 16-10-1.407-2.81-3.504-5.2-6.062-6.938z"></path>
        </symbol>

        <symbol id="icon-arrow-left2" viewBox="0 0 32 32">
            <path d="M12.586 27.414l-10-10c-0.781-0.781-0.781-2.047 0-2.828l10-10c0.781-0.781 2.047-0.781 2.828 0s0.781 2.047 0 2.828l-6.586 6.586h19.172c1.105 0 2 0.895 2 2s-0.895 2-2 2h-19.172l6.586 6.586c0.39 0.39 0.586 0.902 0.586 1.414s-0.195 1.024-0.586 1.414c-0.781 0.781-2.047 0.781-2.828 0z"></path>
        </symbol>
    <symbol id="icon-github" viewBox="0 0 32 32">
    <path d="M16 0.395c-8.836 0-16 7.163-16 16 0 7.069 4.585 13.067 10.942 15.182 0.8 0.148 1.094-0.347 1.094-0.77 0-0.381-0.015-1.642-0.022-2.979-4.452 0.968-5.391-1.888-5.391-1.888-0.728-1.849-1.776-2.341-1.776-2.341-1.452-0.993 0.11-0.973 0.11-0.973 1.606 0.113 2.452 1.649 2.452 1.649 1.427 2.446 3.743 1.739 4.656 1.33 0.143-1.034 0.558-1.74 1.016-2.14-3.554-0.404-7.29-1.777-7.29-7.907 0-1.747 0.625-3.174 1.649-4.295-0.166-0.403-0.714-2.030 0.155-4.234 0 0 1.344-0.43 4.401 1.64 1.276-0.355 2.645-0.532 4.005-0.539 1.359 0.006 2.729 0.184 4.008 0.539 3.054-2.070 4.395-1.64 4.395-1.64 0.871 2.204 0.323 3.831 0.157 4.234 1.026 1.12 1.647 2.548 1.647 4.295 0 6.145-3.743 7.498-7.306 7.895 0.574 0.497 1.085 1.47 1.085 2.963 0 2.141-0.019 3.864-0.019 4.391 0 0.426 0.288 0.925 1.099 0.768 6.354-2.118 10.933-8.113 10.933-15.18 0-8.837-7.164-16-16-16z"></path>
    </symbol>
    <symbol id="icon-arrow2" viewBox="0 0 32 32">
<symbol id="icon-arrow2" viewBox="0 0 32 32">
<path fill="none" stroke="#f8f8f8" style="stroke: var(--color1, #f8f8f8)" stroke-linejoin="round" stroke-linecap="round" stroke-miterlimit="4" stroke-width="2.2857" d="M11.501 7l8.998 9-9 9"></path>
</symbol>
<symbol id="icon-arrow1" viewBox="0 0 32 32">
<path fill="none" stroke="#b7b7b7" style="stroke: var(--color2, #b7b7b7)" stroke-linejoin="round" stroke-linecap="round" stroke-miterlimit="4" stroke-width="2.2857" d="M20.501 7l-9 9 8.999 9"></path>
</symbol>
<symbol id="icon-search" viewBox="0 0 32 32">
<path d="M31.008 27.231l-7.58-6.447c-0.784-0.705-1.622-1.029-2.299-0.998 1.789-2.096 2.87-4.815 2.87-7.787 0-6.627-5.373-12-12-12s-12 5.373-12 12 5.373 12 12 12c2.972 0 5.691-1.081 7.787-2.87-0.031 0.677 0.293 1.515 0.998 2.299l6.447 7.58c1.104 1.226 2.907 1.33 4.007 0.23s0.997-2.903-0.23-4.007zM12 20c-4.418 0-8-3.582-8-8s3.582-8 8-8 8 3.582 8 8-3.582 8-8 8z"></path>
</symbol>
<symbol id="icon-moon-mb" viewBox="0 0 32 32">
<path fill="none" stroke="#fff" style="stroke: var(--color1, #fff)" stroke-linejoin="round" stroke-linecap="round" stroke-miterlimit="4" stroke-width="2.6667" d="M2.704 16.563c0.496 6.865 6.512 12.45 13.712 12.757 5.080 0.213 9.623-2.079 12.349-5.692 1.129-1.48 0.523-2.466-1.363-2.133-0.922 0.16-1.872 0.227-2.864 0.187-6.732-0.267-12.239-5.719-12.267-12.157-0.014-1.733 0.358-3.372 1.033-4.865 0.743-1.653-0.151-2.439-1.872-1.733-5.452 2.226-9.183 7.545-8.728 13.636z"></path>
</symbol>
<symbol id="icon-sunshine" viewBox="0 0 32 32">
<path fill="none" stroke="#fff" style="stroke: var(--color1, #fff)" stroke-linejoin="round" stroke-linecap="round" stroke-miterlimit="4" stroke-width="2" d="M16 26c5.523 0 10-4.477 10-10s-4.477-10-10-10c-5.523 0-10 4.477-10 10s4.477 10 10 10z"></path>
<path fill="none" stroke="#fff" style="stroke: var(--color1, #fff)" stroke-linejoin="round" stroke-linecap="round" stroke-miterlimit="4" stroke-width="3" d="M25.814 6.186l0.182-0.182M6.004 25.996l0.182-0.182M16 2.112v-0.112M16 30v-0.112M2.112 16h-0.112M30 16h-0.112M6.186 6.186l-0.182-0.182M25.996 25.996l-0.182-0.182"></path>
</symbol>


</defs>
</svg>
